HIERARCHY
ROOT root
{
	OFFSET	0	13.1	24.9
	CHANNELS 6  Xposition Yposition Zposition Xrotation Yrotation Zrotation
	JOINT spine_1
	{
		OFFSET	0	9.99999	0
		CHANNELS 3  Xrotation Yrotation Zrotation
		JOINT spine_2
		{
			OFFSET	0	112	-10
			CHANNELS 3  Xrotation Yrotation Zrotation
			JOINT spine_3
			{
				OFFSET	0	206.5	19.3
				CHANNELS 3  Xrotation Yrotation Zrotation
				JOINT spine_4
				{
					OFFSET	0	110.4	14.6
					CHANNELS 3  Xrotation Yrotation Zrotation
					JOINT neck_1
					{
						OFFSET	0	71.8	-50.3
						CHANNELS 3  Xrotation Yrotation Zrotation
						JOINT neck_2
						{
							OFFSET	0	86.2	-25.8
							CHANNELS 3  Xrotation Yrotation Zrotation
							JOINT head_ee
							{
								OFFSET	0	179.8	-8.7
								CHANNELS 3  Xrotation Yrotation Zrotation
								End Site
								{
									OFFSET	1	0	0
								}
							}
						}
					}
					JOINT left_clavicle
					{
						OFFSET	-43.2	22.4	-70.8
						CHANNELS 3  Xrotation Yrotation Zrotation
						JOINT left_shoulder
						{
							OFFSET	-93.9	-5.79999	48.7
							CHANNELS 3  Xrotation Yrotation Zrotation
							JOINT left_elbow
							{
								OFFSET	-291.4	-30.8	15.2
								CHANNELS 3  Xrotation Yrotation Zrotation
								JOINT left_lowarm_twist
								{
									OFFSET	-110.7	-3.89999	13.6
									CHANNELS 3  Xrotation Yrotation Zrotation
									JOINT left_hand
									{
										OFFSET	-110.7	-3.89999	13.6
										CHANNELS 3  Xrotation Yrotation Zrotation
										JOINT left_ee
										{
											OFFSET	-80.8	-5.10001	12.1
											CHANNELS 3  Xrotation Yrotation Zrotation
											End Site
											{
												OFFSET	1	0	0
											}
										}
									}
								}
							}
						}
					}
					JOINT right_clavicle
					{
						OFFSET	43.2	22.4	-70.8
						CHANNELS 3  Xrotation Yrotation Zrotation
						JOINT right_shoulder
						{
							OFFSET	93.9	-5.79999	48.7
							CHANNELS 3  Xrotation Yrotation Zrotation
							JOINT right_elbow
							{
								OFFSET	291.4	-30.8	15.2
								CHANNELS 3  Xrotation Yrotation Zrotation
								JOINT right_lowarm_twist
								{
									OFFSET	110.7	-3.89999	13.6
									CHANNELS 3  Xrotation Yrotation Zrotation
									JOINT right_hand
									{
										OFFSET	110.7	-3.89999	13.6
										CHANNELS 3  Xrotation Yrotation Zrotation
										JOINT right_ee
										{
											OFFSET	80.8	-5.10001	12.1
											CHANNELS 3  Xrotation Yrotation Zrotation
											End Site
											{
												OFFSET	1	0	0
											}
										}
									}
								}
							}
						}
					}
				}
			}
		}
	}
	JOINT left_hip
	{
		OFFSET	-82.8	-127.5	0.300001
		CHANNELS 3  Xrotation Yrotation Zrotation
		JOINT left_knee
		{
			OFFSET	-28.2	-396.7	2.2
			CHANNELS 3  Xrotation Yrotation Zrotation
			JOINT left_ankle
			{
				OFFSET	-11.7	-411.3	35.4
				CHANNELS 3  Xrotation Yrotation Zrotation
				JOINT left_toes
				{
					OFFSET	0	-60	-88.6
					CHANNELS 3  Xrotation Yrotation Zrotation
					JOINT left_foot_ee
					{
						OFFSET	-22.5	-16.5	-42.2
						CHANNELS 3  Xrotation Yrotation Zrotation
						End Site
						{
							OFFSET	1	0	0
						}
					}
				}
			}
		}
	}
	JOINT right_hip
	{
		OFFSET	82.8	-127.5	0.300001
		CHANNELS 3  Xrotation Yrotation Zrotation
		JOINT right_knee
		{
			OFFSET	28.2	-396.7	2.2
			CHANNELS 3  Xrotation Yrotation Zrotation
			JOINT right_ankle
			{
				OFFSET	11.7	-411.3	35.4
				CHANNELS 3  Xrotation Yrotation Zrotation
				JOINT right_toes
				{
					OFFSET	0	-60	-88.6
					CHANNELS 3  Xrotation Yrotation Zrotation
					JOINT right_foot_ee
					{
						OFFSET	22.5	-16.5	-42.2
						CHANNELS 3  Xrotation Yrotation Zrotation
						End Site
						{
							OFFSET	1	0	0
						}
					}
				}
			}
		}
	}
}
MOTION
Frames: 15
Frame Time: 0.02
3258.81 749.611 -380.555 176.109 -56.2389 -173.458 -0.726557 -0.971469 -4.25589 -0.716755 -0.698946 -4.30894 -0.656219 0.272053 -4.35668 -0.682454 -0.418752 -4.34506 10.156 -1.56459 3.78916 10.2906 -6.03904 4.62719 -0.0 0.0 -0.0 3.97807 21.2552 8.19663 3.06904 -22.1264 72.8135 2.63871 -52.574 1.30356 1.62574 0.0544376 -0.200498 -0.656335 -4.07722 -6.15619 -0.0 0.0 -0.0 3.41309 2.68867 -6.41183 -19.1007 21.2847 -58.0766 0.883042 23.6259 -0.184689 2.73171 -0.0882066 0.337728 1.74109 -29.6894 -21.3512 0.0 0.0 0.0 3.21248 4.96062 -10.2497 -6.10606 0.202814 0.914711 34.7389 8.12216 -4.3772 -14.669 0.0 0.0 -0.0 0.0 -0.0 6.863 -2.99527 -7.62571 2.88481 0.129501 0.423661 0.809689 5.96466 0.122066 -18.9658 0.0 0.0 0.0 0.0 0.0 
3269.9 750.788 -377.403 174.864 -57.3724 -174.959 -0.841429 -0.972645 -4.19017 -0.831939 -0.70429 -4.24344 -0.771693 0.260974 -4.29347 -0.797164 -0.419738 -4.28089 9.85572 -2.33376 2.99234 9.98025 -6.56997 3.62948 -0.0 0.0 -0.0 5.0265 21.1953 9.72836 0.859508 -22.9034 73.05 2.42316 -50.1953 1.1351 -0.551908 -0.0197727 0.0677094 -0.510607 -1.7453 -4.16437 -0.0 0.0 -0.0 3.14585 1.78899 -5.9451 -18.4008 20.9008 -58.013 0.917809 24.4488 -0.198851 3.00388 -0.0961099 0.371595 1.74466 -29.4235 -21.3102 0.0 0.0 0.0 1.55279 6.05833 -9.14293 -5.18299 0.178433 0.775153 32.6442 9.58933 -4.17293 -15.8878 0.0 0.0 -0.0 0.0 -0.0 6.89381 -2.91782 -6.33016 -2.17166 -0.0833051 -0.322846 4.33581 3.52351 0.640776 -17.7629 0.0 0.0 0.0 0.0 0.0 
3277.69 748.459 -370.809 174.245 -58.2348 -175.776 -0.832835 -0.830883 -4.06438 -0.823828 -0.570796 -4.10891 -0.775546 0.361638 -4.13253 -0.799251 -0.294982 -4.13781 9.70249 -2.71749 3.26348 9.85789 -7.45013 3.94867 -0.0 0.0 -0.0 4.9479 19.7263 9.65239 -0.372539 -22.7183 72.5961 2.24089 -47.9797 0.997336 -0.14895 -0.00527211 0.0182919 -0.506061 -2.68482 -4.53908 -0.0 0.0 -0.0 3.06213 2.65635 -5.72041 -18.0271 19.949 -58.665 1.05985 27.6996 -0.261308 4.79402 -0.14407 0.595229 2.03811 -29.209 -22.9915 0.0 0.0 0.0 -0.420598 5.29862 -9.04259 -4.24761 0.151433 0.634141 34.2052 7.38403 -4.32254 -14.6477 0.0 0.0 -0.0 0.0 -0.0 6.70181 -2.93885 -5.81067 -4.32494 -0.153753 -0.645782 2.80932 8.50292 0.426395 -18.3105 0.0 0.0 0.0 0.0 0.0 
3282.31 748.387 -366.378 174.515 -58.5905 -175.823 -0.513739 -0.68546 -3.99717 -0.504955 -0.429932 -4.03261 -0.468655 0.460599 -4.02923 -0.491258 -0.180983 -4.05139 9.08387 -3.34543 3.42316 9.27571 -8.64351 4.09249 -0.0 0.0 -0.0 5.20131 19.8805 10.0299 -1.79566 -23.9079 72.4957 2.01562 -44.9512 0.833961 -1.49099 -0.0549145 0.182476 -0.321941 1.15361 -1.65765 -0.0 0.0 -0.0 3.07344 3.20669 -5.7038 -16.9997 19.627 -58.8113 1.13337 29.3105 -0.296396 5.80651 -0.168093 0.722334 2.01756 -29.7397 -22.9838 0.0 0.0 0.0 -2.03708 5.87425 -8.37671 0.174061 -0.00720639 -0.0257389 32.1327 7.38643 -4.11311 -15.5683 0.0 0.0 -0.0 0.0 -0.0 7.83828 -1.62046 -5.54619 -8.05792 -0.246945 -1.21098 6.91577 5.57443 1.02187 -19.5624 0.0 0.0 0.0 0.0 0.0 
3287.56 749.081 -358.634 174.207 -58.0128 -176.541 -0.340391 -0.541146 -3.82858 -0.332287 -0.296612 -3.8552 -0.307398 0.541413 -3.82854 -0.327841 -0.0695594 -3.86595 8.26961 -3.1986 5.3555 8.57804 -10.1609 6.3503 -0.0 0.0 -0.0 5.52388 19.1691 10.545 -3.64201 -24.3571 72.2817 1.75821 -41.051 0.658304 -2.76709 -0.105678 0.337492 -0.0837177 7.02004 2.38039 -0.0 0.0 -0.0 2.914 3.26899 -5.38302 -16.3522 18.5955 -60.0674 1.23879 31.5346 -0.349792 5.60374 -0.163462 0.696845 1.77529 -28.7888 -21.3408 0.0 0.0 0.0 -3.58451 7.77122 -7.84078 2.95883 -0.133104 -0.434445 27.2544 9.33514 -3.59216 -17.2028 0.0 0.0 -0.0 0.0 -0.0 8.0405 -1.16201 -5.1198 -11.351 -0.298442 -1.7136 13.0207 4.59389 1.87335 -20.4177 0.0 0.0 0.0 0.0 0.0 
3294.89 747.343 -354.462 174.159 -58.6297 -177.256 -0.116658 -0.514108 -3.81755 -0.108592 -0.27033 -3.84247 -0.0860954 0.549643 -3.8126 -0.106371 -0.0589208 -3.85151 8.27338 -4.59769 6.44053 8.78331 -13.4616 7.65431 -0.0 0.0 -0.0 5.74297 20.2551 10.8302 -4.21065 -25.2266 72.3472 1.42735 -35.2608 0.453635 -3.15511 -0.121797 0.384402 0.213784 11.3164 6.03913 -0.0 0.0 -0.0 2.75882 3.97607 -5.02102 -17.0953 18.4117 -59.2447 1.37552 34.2683 -0.424081 6.25419 -0.177997 0.778664 1.95817 -29.6091 -22.605 0.0 0.0 0.0 -4.94697 9.29681 -6.65709 5.04723 -0.240501 -0.736761 28.4093 9.03376 -3.71983 -20.3797 0.0 0.0 -0.0 0.0 -0.0 7.52241 -4.44703 -4.30014 -11.805 -0.303272 -1.78308 16.0572 1.31815 2.25679 -20.7557 0.0 0.0 0.0 0.0 0.0 
3298.76 747.51 -347.722 174.038 -58.3498 -177.508 0.0306846 -0.480494 -3.88718 0.039059 -0.232363 -3.90983 0.0590307 0.591311 -3.87189 0.0381162 -0.0271153 -3.91662 8.09712 -4.80244 7.42892 8.72624 -14.6911 8.82806 -0.0 0.0 -0.0 6.3197 19.3127 11.7597 -7.01555 -25.1415 70.5854 1.18675 -30.4493 0.322992 -2.91185 -0.111654 0.355006 1.0811 12.7844 12.1614 -0.0 0.0 -0.0 2.95969 4.38866 -5.39078 -16.397 18.759 -58.8529 1.44108 35.5197 -0.461588 6.59561 -0.185255 0.821673 2.15479 -29.6393 -23.7772 0.0 0.0 0.0 -5.08571 8.92114 -6.88857 5.10742 -0.24376 -0.745417 28.2374 10.2499 -3.70538 -23.8352 0.0 0.0 -0.0 0.0 -0.0 6.56848 -4.13925 -4.38202 -11.6791 -0.301988 -1.76382 19.053 -0.363171 2.63129 -20.9241 0.0 0.0 0.0 0.0 0.0 
3299.93 747.839 -343.242 174.709 -59.3214 -177.383 0.246233 -0.580642 -3.84451 0.254392 -0.335017 -3.87361 0.280779 0.468147 -3.85981 0.260024 -0.146836 -3.88528 8.22383 -5.13114 8.50585 9.01997 -16.1994 10.165 -0.0 0.0 -0.0 6.36102 18.3787 11.8799 -7.91524 -27.3991 70.9306 1.00443 -26.4528 0.236082 -4.13449 -0.163896 0.502318 1.45307 16.0407 15.6875 -0.0 0.0 -0.0 2.75425 5.26764 -4.91083 -17.0003 18.9137 -58.8934 1.6102 38.5746 -0.563516 7.39156 -0.201179 0.922101 2.23392 -29.7232 -24.267 0.0 0.0 0.0 -5.30515 6.26389 -6.61203 6.21304 -0.305237 -0.903796 27.2215 10.4439 -3.59263 -27.6346 0.0 0.0 -0.0 0.0 -0.0 6.2956 -5.23585 -3.80601 -11.2916 -0.297769 -1.70451 20.377 -0.0269009 2.79846 -20.9661 0.0 0.0 0.0 0.0 0.0 
3305.38 749.775 -334.203 174.353 -59.8113 -177.656 0.380096 -0.551244 -3.77248 0.387958 -0.310252 -3.79986 0.411817 0.468586 -3.78362 0.391869 -0.134398 -3.81012 8.27581 -5.08881 8.79017 9.10631 -16.3834 10.5226 -0.0 0.0 -0.0 6.54293 18.4195 12.1625 -10.0983 -27.4047 70.2941 0.783379 -21.2093 0.146673 -5.16596 -0.21041 0.625718 1.69051 18.5541 18.0154 -0.0 0.0 -0.0 2.72493 5.15009 -4.86119 -16.1412 18.4009 -58.9687 1.74811 40.8877 -0.651682 7.68592 -0.206714 0.959296 2.3067 -29.6338 -24.6861 0.0 0.0 0.0 -6.42678 7.50673 -6.5726 7.08972 -0.356157 -1.02854 28.5426 10.3636 -3.73965 -30.1709 0.0 0.0 -0.0 0.0 -0.0 5.39837 -6.07593 -4.66538 -11.4486 -0.299527 -1.72853 20.789 -1.31753 2.84219 -21.1118 0.0 0.0 0.0 0.0 0.0 
3307.99 748.322 -334.653 175.463 -60.2879 -177.683 0.469282 -0.535303 -3.63374 0.476576 -0.303152 -3.66039 0.49882 0.441606 -3.6463 0.480296 -0.139399 -3.67026 8.33561 -5.30558 9.29636 9.26167 -17.1948 11.159 -0.0 0.0 -0.0 6.45911 19.2528 11.9784 -10.8166 -28.2107 70.8228 0.686934 -18.7928 0.113678 -5.89924 -0.244828 0.712934 1.82226 20.2471 19.3647 -0.0 0.0 -0.0 2.6286 5.90962 -4.60575 -15.6519 19.1171 -58.8127 1.83861 42.323 -0.71178 7.6936 -0.206856 0.960266 2.26385 -29.5983 -24.4215 0.0 0.0 0.0 -5.79373 5.45047 -5.78675 6.85993 -0.342625 -0.995915 29.697 10.2488 -3.86531 -32.234 0.0 0.0 -0.0 0.0 -0.0 5.3934 -6.42131 -2.83903 -10.8445 -0.292403 -1.63611 21.9944 -1.22712 2.98965 -20.9964 0.0 0.0 0.0 0.0 0.0 
3314.49 748.014 -328.647 174.493 -61.967 -178.353 0.450529 -0.573375 -3.59004 0.457632 -0.343923 -3.61919 0.482269 0.394312 -3.61406 0.464091 -0.181021 -3.63097 8.5383 -5.44434 9.13748 9.46682 -17.2797 11.0043 -0.0 0.0 -0.0 6.73802 18.1796 12.4854 -11.9817 -28.3368 70.9368 0.591628 -16.3347 0.0849115 -6.42359 -0.270124 0.77503 1.86598 21.5865 20.0266 -0.0 0.0 -0.0 2.36202 6.22172 -4.0405 -15.601 18.522 -59.5289 1.87815 42.9302 -0.738559 7.83643 -0.20947 0.978324 2.34396 -29.7048 -24.9244 0.0 0.0 0.0 -6.0666 5.29016 -6.34497 6.51748 -0.322703 -0.947201 30.2086 10.4461 -3.92145 -33.2795 0.0 0.0 -0.0 0.0 -0.0 4.08432 -6.52624 -3.11386 -10.8875 -0.292942 -1.64269 22.3683 -1.24937 3.03465 -20.9725 0.0 0.0 0.0 0.0 0.0 
3320.21 752.16 -319.896 173.837 -61.509 -179.184 0.49675 -0.563903 -3.57964 0.503816 -0.33513 -3.60821 0.527714 0.397858 -3.60185 0.509657 -0.175594 -3.61947 8.59398 -5.3286 9.62889 9.58142 -17.5286 11.6212 -0.0 0.0 -0.0 6.57025 18.3186 12.2119 -12.8845 -28.7979 71.6894 0.348755 -9.80204 0.0299052 -7.22032 -0.309647 0.868938 1.77347 23.8888 20.086 -0.0 0.0 -0.0 2.3838 5.07012 -4.18237 -14.13 16.6039 -60.8421 1.87953 42.9512 -0.739498 6.88479 -0.191202 0.858134 2.15951 -29.5793 -23.7931 0.0 0.0 0.0 -7.35467 5.57153 -6.36104 5.25958 -0.252039 -0.767283 28.6278 10.6384 -3.75036 -35.0845 0.0 0.0 -0.0 0.0 -0.0 2.90084 -5.93464 -3.6037 -10.0511 -0.281566 -1.51485 22.6296 -1.95084 3.06259 -21.1034 0.0 0.0 0.0 0.0 0.0 
3321.34 748.412 -318.821 174.256 -62.9147 -178.919 0.446233 -0.65071 -3.63468 0.453485 -0.418267 -3.66866 0.483366 0.33129 -3.67752 0.464586 -0.253258 -3.68371 8.35879 -5.01953 9.36906 9.26303 -16.7866 11.2492 -0.0 0.0 -0.0 6.60921 18.0683 12.2894 -14.1207 -28.7039 71.7165 0.383034 -10.744 0.0360186 -8.72392 -0.387786 1.04465 1.46858 24.8329 18.4872 -0.0 0.0 -0.0 2.00128 5.07074 -3.41441 -12.8781 15.9317 -61.2401 1.92466 43.6294 -0.770442 6.7539 -0.188533 0.841628 2.08009 -29.7545 -23.357 0.0 0.0 0.0 -7.66669 6.43081 -6.13666 6.38077 -0.314831 -0.927721 30.0317 12.0621 -3.91224 -35.391 0.0 0.0 -0.0 0.0 -0.0 2.7653 -5.09101 -3.18977 -10.0702 -0.281847 -1.51776 23.2722 -0.93837 3.14445 -20.8863 0.0 0.0 0.0 0.0 0.0 
3327.4 748.435 -316.744 174.441 -63.2721 -179.291 0.613734 -0.520618 -3.4929 0.620471 -0.297441 -3.5189 0.641141 0.409891 -3.5076 0.624005 -0.148856 -3.5283 8.2471 -5.22869 9.65367 9.21091 -17.3878 11.5808 -0.0 0.0 -0.0 6.42855 17.9914 12.009 -15.4052 -28.6933 71.8986 0.299058 -8.42695 0.0220322 -7.76102 -0.337213 0.932356 1.94672 23.9478 21.1746 -0.0 0.0 -0.0 2.01788 5.15712 -3.44002 -14.2855 18.3634 -60.01 1.95897 44.135 -0.794225 7.89227 -0.21048 0.985385 2.34032 -29.5928 -24.8808 0.0 0.0 0.0 -7.93876 4.98937 -5.70131 5.68114 -0.275279 -0.827747 30.3041 10.6836 -3.93297 -35.4385 0.0 0.0 -0.0 0.0 -0.0 2.51903 -5.22528 -2.31976 -10.2105 -0.283879 -1.53921 22.7725 -0.37471 3.08814 -21.0524 0.0 0.0 0.0 0.0 0.0 
3322.02 747.142 -308.397 175.874 -63.9403 -177.844 0.507536 -0.645269 -3.40509 0.513884 -0.427419 -3.43919 0.542203 0.272348 -3.45491 0.525655 -0.276374 -3.45459 8.92022 -4.73067 9.92272 9.89291 -16.807 12.04 -0.0 0.0 -0.0 6.19103 17.1601 11.6773 -15.3087 -28.7099 71.3662 0.237379 -6.70682 0.0139092 -8.32531 -0.366621 0.998264 1.7594 25.6935 20.4785 -0.0 0.0 -0.0 2.0964 4.03038 -3.69661 -10.5179 17.3683 -61.6132 1.88076 42.9699 -0.740338 7.04604 -0.194438 0.878478 2.28531 -29.504 -24.5318 0.0 0.0 0.0 -7.13054 6.78572 -6.1502 6.93598 -0.347089 -1.00672 31.4118 10.5285 -4.04977 -36.2622 0.0 0.0 -0.0 0.0 -0.0 2.45483 -5.29882 -3.88746 -8.84223 -0.261831 -1.33041 25.8283 -0.366505 3.44621 -20.5813 0.0 0.0 0.0 0.0 0.0 
